<svg width="47" height="47" viewBox="0 0 47 47" fill="none" xmlns="http://www.w3.org/2000/svg">
<g clip-path="url(#clip0_7_1626)">
<path d="M21.9888 35.6921L0.625723 14.3285C-0.208598 13.4943 -0.208598 12.1416 0.625866 11.3073C1.46019 10.4731 2.81279 10.4731 3.64711 11.3074L23.4996 31.1603L43.3531 11.3073C44.1875 10.4731 45.5401 10.4731 46.3744 11.3074C46.7915 11.7244 47.0001 12.2712 47.0001 12.818C47.0001 13.3647 46.7915 13.9115 46.3742 14.3286L25.01 35.6921C24.6094 36.0929 24.066 36.318 23.4995 36.318C22.9329 36.318 22.3894 36.0929 21.9888 35.6921Z" fill="white"/>
</g>
<defs>
<clipPath id="clip0_7_1626">
<rect width="47" height="47" fill="white" transform="matrix(0 1 1 0 0 0)"/>
</clipPath>
</defs>
</svg>
