<svg width="40" height="40" viewBox="0 0 40 40" fill="none" xmlns="http://www.w3.org/2000/svg">
<g clip-path="url(#clip0_5202_59)">
<path d="M40.0001 20.1211C40.0001 9.00609 31.0451 -0.00390625 20.0001 -0.00390625C8.95006 -0.00140625 -0.00494385 9.00609 -0.00494385 20.1236C-0.00494385 30.1661 7.31006 38.4911 16.8701 40.0011V25.9386H11.7951V20.1236H16.8751V15.6861C16.8751 10.6436 19.8626 7.85859 24.4301 7.85859C26.6201 7.85859 28.9076 8.25109 28.9076 8.25109V13.2011H26.3851C23.9026 13.2011 23.1276 14.7536 23.1276 16.3461V20.1211H28.6726L27.7876 25.9361H23.1251V39.9986C32.6851 38.4886 40.0001 30.1636 40.0001 20.1211Z" fill="white"/>
</g>
<defs>
<clipPath id="clip0_5202_59">
<rect width="40" height="40" fill="white"/>
</clipPath>
</defs>
</svg>
