<svg width="20" height="18" viewBox="0 0 20 18" fill="none" xmlns="http://www.w3.org/2000/svg">
<path fill-rule="evenodd" clip-rule="evenodd" d="M5.50928 0.571289C5.81568 0.571289 6.10953 0.691697 6.32619 0.906024C6.54285 1.12035 6.66456 1.41104 6.66456 1.71415V3.99986C6.66456 4.30297 6.54285 4.59366 6.32619 4.80798C6.10953 5.02231 5.81568 5.14272 5.50928 5.14272C5.20288 5.14272 4.90903 5.02231 4.69238 4.80798C4.47572 4.59366 4.354 4.30297 4.354 3.99986V1.71415C4.354 1.41104 4.47572 1.12035 4.69238 0.906024C4.90903 0.691697 5.20288 0.571289 5.50928 0.571289V0.571289Z" stroke="black" stroke-linecap="round" stroke-linejoin="round"/>
<path d="M19.3726 2.85742H6.66455" stroke="black" stroke-linecap="round" stroke-linejoin="round"/>
<path d="M4.35402 2.85742H0.888184" stroke="black" stroke-linecap="round" stroke-linejoin="round"/>
<path fill-rule="evenodd" clip-rule="evenodd" d="M5.50928 12C5.81568 12 6.10953 12.1204 6.32619 12.3347C6.54285 12.5491 6.66456 12.8398 6.66456 13.1429V15.4286C6.66456 15.7317 6.54285 16.0224 6.32619 16.2367C6.10953 16.451 5.81568 16.5714 5.50928 16.5714C5.20288 16.5714 4.90903 16.451 4.69238 16.2367C4.47572 16.0224 4.354 15.7317 4.354 15.4286V13.1429C4.354 12.8398 4.47572 12.5491 4.69238 12.3347C4.90903 12.1204 5.20288 12 5.50928 12Z" stroke="black" stroke-linecap="round" stroke-linejoin="round"/>
<path d="M19.3726 14.2852H6.66455" stroke="black" stroke-linecap="round" stroke-linejoin="round"/>
<path d="M4.35402 14.2852H0.888184" stroke="black" stroke-linecap="round" stroke-linejoin="round"/>
<path fill-rule="evenodd" clip-rule="evenodd" d="M14.7515 6.28516C15.0579 6.28516 15.3517 6.40556 15.5684 6.61989C15.785 6.83422 15.9068 7.12491 15.9068 7.42801V9.71373C15.9068 10.0168 15.785 10.3075 15.5684 10.5218C15.3517 10.7362 15.0579 10.8566 14.7515 10.8566C14.4451 10.8566 14.1512 10.7362 13.9346 10.5218C13.7179 10.3075 13.5962 10.0168 13.5962 9.71373V7.42801C13.5962 7.12491 13.7179 6.83422 13.9346 6.61989C14.1512 6.40556 14.4451 6.28516 14.7515 6.28516V6.28516Z" stroke="black" stroke-linecap="round" stroke-linejoin="round"/>
<path d="M13.5963 8.57129H0.888184" stroke="black" stroke-linecap="round" stroke-linejoin="round"/>
<path d="M19.3726 8.57129H15.9067" stroke="black" stroke-linecap="round" stroke-linejoin="round"/>
</svg>
