<svg width="40" height="40" viewBox="0 0 40 40" fill="none" xmlns="http://www.w3.org/2000/svg">
<g clip-path="url(#clip0_5202_62)">
<path d="M20 0C8.95599 0 0 8.95599 0 20C0 31.044 8.95599 40 20 40C31.044 40 40 31.044 40 20C40 8.95599 31.044 0 20 0ZM20.4239 31.6446C20.4236 31.6446 20.4242 31.6446 20.4239 31.6446H20.419C18.4155 31.6437 16.4468 31.1414 14.6985 30.188L8.35297 31.8521L10.0513 25.6509C9.0036 23.8364 8.45245 21.7776 8.45337 19.6686C8.45612 13.0707 13.826 7.70294 20.4239 7.70294C23.6258 7.70416 26.6315 8.9505 28.8913 11.2122C31.1514 13.4741 32.3953 16.4807 32.3941 19.678C32.3914 26.2762 27.0209 31.6446 20.4239 31.6446Z" fill="white"/>
<path d="M20.4278 9.72266C14.9399 9.72266 10.4767 14.184 10.4742 19.668C10.4736 21.5473 10.9997 23.3774 11.9955 24.961L12.232 25.3373L11.2268 29.0076L14.9923 28.0201L15.3558 28.2355C16.8832 29.1419 18.6343 29.6213 20.4196 29.622H20.4236C25.9073 29.622 30.3705 25.1603 30.3729 19.676C30.3738 17.0182 29.3399 14.5194 27.4615 12.6395C25.5832 10.7596 23.085 9.72357 20.4278 9.72266ZM26.2799 23.9442C26.0306 24.6424 24.8358 25.2799 24.2611 25.366C23.7457 25.4429 23.0938 25.4749 22.3773 25.2476C21.9427 25.1096 21.3858 24.9256 20.672 24.6177C17.6718 23.3225 15.7123 20.3025 15.5627 20.1029C15.4132 19.9033 14.3414 18.4815 14.3414 17.0096C14.3414 15.5381 15.1141 14.8145 15.3882 14.5154C15.6625 14.2161 15.9866 14.1413 16.1859 14.1413C16.3852 14.1413 16.5847 14.1431 16.759 14.1517C16.9427 14.1608 17.1893 14.0818 17.4319 14.665C17.6812 15.2637 18.2794 16.7353 18.3542 16.8848C18.4289 17.0347 18.4787 17.2092 18.3792 17.4088C18.2794 17.6084 17.948 18.039 17.6315 18.4315C17.4988 18.5959 17.3257 18.7424 17.5003 19.0418C17.6745 19.3409 18.2751 20.3202 19.1641 21.113C20.3067 22.1317 21.2704 22.4473 21.5695 22.5971C21.8683 22.7466 22.0428 22.7216 22.2174 22.5223C22.3916 22.3228 22.9651 21.6492 23.1643 21.3499C23.3636 21.0505 23.5632 21.1005 23.8373 21.2003C24.1116 21.2998 25.5819 22.0234 25.881 22.1729C26.1801 22.3228 26.3794 22.3975 26.4541 22.5223C26.5292 22.6472 26.5292 23.2456 26.2799 23.9442Z" fill="white"/>
</g>
<defs>
<clipPath id="clip0_5202_62">
<rect width="40" height="40" fill="white"/>
</clipPath>
</defs>
</svg>
